<svg width="0" height="0" class="hidden">
  <symbol fill="none" xmlns="http://www.w3.org/2000/svg" viewBox="0 0 21 22" id="Calling">
    <path fill-rule="evenodd" clip-rule="evenodd" d="M10.0315 11.4724C14.0205 15.4604 14.9254 10.8467 17.4653 13.3848C19.9138 15.8328 21.3222 16.3232 18.2188 19.4247C17.8302 19.737 15.3613 23.4943 6.68447 14.8197C-1.99341 6.144 1.76157 3.67244 2.07394 3.28395C5.18377 0.173846 5.66682 1.58938 8.11539 4.03733C10.6541 6.5765 6.04254 7.48441 10.0315 11.4724Z" stroke="#FF5722" stroke-width="1.5" stroke-linecap="round" stroke-linejoin="round"></path>
  </symbol>
  <symbol fill="none" xmlns="http://www.w3.org/2000/svg" viewBox="0 0 314 314" id="Facebook">
    <path d="M300.75 0.75H13.25C6.33594 0.75 0.75 6.33594 0.75 13.25V300.75C0.75 307.664 6.33594 313.25 13.25 313.25H300.75C307.664 313.25 313.25 307.664 313.25 300.75V13.25C313.25 6.33594 307.664 0.75 300.75 0.75ZM264.656 91.9609H239.695C220.125 91.9609 216.336 101.258 216.336 114.93V145.047H263.055L256.961 192.195H216.336V313.25H167.625V192.234H126.883V145.047H167.625V110.281C167.625 69.9297 192.273 47.9375 228.289 47.9375C245.555 47.9375 260.359 49.2266 264.695 49.8125V91.9609H264.656Z" fill="#FF5722"></path>
  </symbol>
  <symbol fill="none" xmlns="http://www.w3.org/2000/svg" viewBox="0 0 368 368" id="Linkedin">
    <path fill-rule="evenodd" clip-rule="evenodd" d="M0.666676 31.3C0.666676 23.1755 3.89411 15.3838 9.63897 9.63896C15.3838 3.8941 23.1755 0.666667 31.3 0.666667H336.667C340.693 0.660091 344.681 1.44772 348.402 2.98444C352.124 4.52117 355.506 6.77683 358.354 9.62227C361.203 12.4677 363.462 15.8471 365.003 19.5668C366.544 23.2866 367.336 27.2738 367.333 31.3V336.667C367.338 340.694 366.548 344.682 365.009 348.404C363.471 352.125 361.214 355.507 358.367 358.355C355.52 361.203 352.14 363.463 348.419 365.003C344.698 366.544 340.71 367.336 336.683 367.333H31.3C27.2758 367.333 23.291 366.54 19.5733 365C15.8556 363.459 12.4779 361.201 9.63308 358.355C6.78829 355.509 4.5322 352.13 2.99371 348.411C1.45523 344.693 0.664487 340.708 0.666676 336.683V31.3ZM145.8 140.467H195.45V165.4C202.617 151.067 220.95 138.167 248.5 138.167C301.317 138.167 313.833 166.717 313.833 219.1V316.133H260.383V231.033C260.383 201.2 253.217 184.367 235.017 184.367C209.767 184.367 199.267 202.517 199.267 231.033V316.133H145.8V140.467ZM54.1333 313.85H107.6V138.167H54.1333V313.833V313.85ZM115.25 80.8667C115.351 85.4445 114.536 89.9964 112.854 94.2552C111.172 98.514 108.656 102.394 105.454 105.667C102.252 108.94 98.4283 111.541 94.2076 113.317C89.9869 115.092 85.454 116.007 80.875 116.007C76.296 116.007 71.7632 115.092 67.5424 113.317C63.3217 111.541 59.4981 108.94 56.2961 105.667C53.0942 102.394 50.5782 98.514 48.896 94.2552C47.2138 89.9964 46.3992 85.4445 46.5 80.8667C46.6979 71.8809 50.4064 63.3298 56.8314 57.0448C63.2564 50.7597 71.8871 47.2403 80.875 47.2403C89.8629 47.2403 98.4936 50.7597 104.919 57.0448C111.344 63.3298 115.052 71.8809 115.25 80.8667V80.8667Z" fill="#FF5722"></path>
  </symbol>
  <symbol fill="none" xmlns="http://www.w3.org/2000/svg" viewBox="0 0 24 24" id="Message">
    <path opacity="0.4" d="M17.2678 8.56104L13.0024 11.9953C12.1952 12.6282 11.0636 12.6282 10.2564 11.9953L5.95435 8.56104" stroke="#FF5722" stroke-width="1.5" stroke-linecap="round" stroke-linejoin="round"></path>
    <path fill-rule="evenodd" clip-rule="evenodd" d="M6.88787 3H16.3158C17.6752 3.01525 18.969 3.58993 19.896 4.5902C20.823 5.59048 21.3022 6.92903 21.222 8.29412V14.822C21.3022 16.1871 20.823 17.5256 19.896 18.5259C18.969 19.5262 17.6752 20.1009 16.3158 20.1161H6.88787C3.96796 20.1161 2 17.7407 2 14.822V8.29412C2 5.37545 3.96796 3 6.88787 3Z" stroke="#FF5722" stroke-width="1.5" stroke-linecap="round" stroke-linejoin="round"></path>
  </symbol>
  <symbol fill="none" xmlns="http://www.w3.org/2000/svg" viewBox="0 0 24 24" id="Location">
    <path fill-rule="evenodd" clip-rule="evenodd" d="M4.23901 10.3912C4.25342 6.15065 7.70278 2.72465 11.9434 2.73906C16.1839 2.75347 19.6099 6.20282 19.5955 10.4434V10.5304C19.5434 13.2869 18.0042 15.8347 16.1173 17.826C15.0381 18.9466 13.833 19.9387 12.526 20.7825C12.1765 21.0848 11.6581 21.0848 11.3086 20.7825C9.36008 19.5143 7.64995 17.9131 6.2564 16.0521C5.01436 14.4293 4.30918 12.4597 4.23901 10.4173L4.23901 10.3912Z" stroke="#FF5722" stroke-width="1.5" stroke-linecap="round" stroke-linejoin="round"></path>
    <circle opacity="0.4" cx="11.9172" cy="10.539" r="2.46087" stroke="#FF5722" stroke-width="1.5" stroke-linecap="round" stroke-linejoin="round"></circle>
  </symbol>
  <symbol fill="none" xmlns="http://www.w3.org/2000/svg" viewBox="0 0 380 309" id="Twitter">
    <path d="M379.05 37.2834C365.133 43.45 350.183 47.6167 334.467 49.5C350.683 39.7966 362.816 24.5245 368.6 6.53336C353.364 15.5832 336.689 21.9533 319.3 25.3667C307.606 12.8811 292.118 4.60546 275.239 1.82459C258.36 -0.956281 241.035 1.91321 225.954 9.98757C210.873 18.0619 198.88 30.8894 191.836 46.4784C184.792 62.0674 183.092 79.5459 187 96.2C156.128 94.65 125.927 86.6258 98.3571 72.6484C70.787 58.671 46.464 39.0527 26.9667 15.0667C20.3 26.5667 16.4667 39.9 16.4667 54.1C16.4593 66.8833 19.6072 79.4707 25.6313 90.7456C31.6554 102.02 40.3694 111.634 51 118.733C38.6713 118.341 26.6146 115.01 15.8334 109.017V110.017C15.8321 127.946 22.0339 145.323 33.3864 159.2C44.7389 173.077 60.5429 182.599 78.1167 186.15C66.6798 189.245 54.689 189.701 43.05 187.483C48.0083 202.91 57.6666 216.4 70.6728 226.065C83.679 235.73 99.382 241.086 115.583 241.383C88.0806 262.974 54.1148 274.685 19.15 274.633C12.9564 274.635 6.76797 274.273 0.616699 273.55C36.108 296.37 77.4224 308.48 119.617 308.433C262.45 308.433 340.533 190.133 340.533 87.5334C340.533 84.2 340.45 80.8333 340.3 77.5C355.488 66.5163 368.599 52.9149 379.017 37.3334L379.05 37.2834V37.2834Z" fill="#FF5722"></path>
  </symbol>
</svg>










