<svg width="314" height="314" viewBox="0 0 314 314" fill="none" xmlns="http://www.w3.org/2000/svg">
<path d="M300.75 0.75H13.25C6.33594 0.75 0.75 6.33594 0.75 13.25V300.75C0.75 307.664 6.33594 313.25 13.25 313.25H300.75C307.664 313.25 313.25 307.664 313.25 300.75V13.25C313.25 6.33594 307.664 0.75 300.75 0.75ZM264.656 91.9609H239.695C220.125 91.9609 216.336 101.258 216.336 114.93V145.047H263.055L256.961 192.195H216.336V313.25H167.625V192.234H126.883V145.047H167.625V110.281C167.625 69.9297 192.273 47.9375 228.289 47.9375C245.555 47.9375 260.359 49.2266 264.695 49.8125V91.9609H264.656Z" fill="#FF5722"/>
</svg>
