<svg width="368" height="368" viewBox="0 0 368 368" fill="none" xmlns="http://www.w3.org/2000/svg">
<path fill-rule="evenodd" clip-rule="evenodd" d="M0.666676 31.3C0.666676 23.1755 3.89411 15.3838 9.63897 9.63896C15.3838 3.8941 23.1755 0.666667 31.3 0.666667H336.667C340.693 0.660091 344.681 1.44772 348.402 2.98444C352.124 4.52117 355.506 6.77683 358.354 9.62227C361.203 12.4677 363.462 15.8471 365.003 19.5668C366.544 23.2866 367.336 27.2738 367.333 31.3V336.667C367.338 340.694 366.548 344.682 365.009 348.404C363.471 352.125 361.214 355.507 358.367 358.355C355.52 361.203 352.14 363.463 348.419 365.003C344.698 366.544 340.71 367.336 336.683 367.333H31.3C27.2758 367.333 23.291 366.54 19.5733 365C15.8556 363.459 12.4779 361.201 9.63308 358.355C6.78829 355.509 4.5322 352.13 2.99371 348.411C1.45523 344.693 0.664487 340.708 0.666676 336.683V31.3ZM145.8 140.467H195.45V165.4C202.617 151.067 220.95 138.167 248.5 138.167C301.317 138.167 313.833 166.717 313.833 219.1V316.133H260.383V231.033C260.383 201.2 253.217 184.367 235.017 184.367C209.767 184.367 199.267 202.517 199.267 231.033V316.133H145.8V140.467ZM54.1333 313.85H107.6V138.167H54.1333V313.833V313.85ZM115.25 80.8667C115.351 85.4445 114.536 89.9964 112.854 94.2552C111.172 98.514 108.656 102.394 105.454 105.667C102.252 108.94 98.4283 111.541 94.2076 113.317C89.9869 115.092 85.454 116.007 80.875 116.007C76.296 116.007 71.7632 115.092 67.5424 113.317C63.3217 111.541 59.4981 108.94 56.2961 105.667C53.0942 102.394 50.5782 98.514 48.896 94.2552C47.2138 89.9964 46.3992 85.4445 46.5 80.8667C46.6979 71.8809 50.4064 63.3298 56.8314 57.0448C63.2564 50.7597 71.8871 47.2403 80.875 47.2403C89.8629 47.2403 98.4936 50.7597 104.919 57.0448C111.344 63.3298 115.052 71.8809 115.25 80.8667V80.8667Z" fill="#FF5722"/>
</svg>
