<svg width="380" height="309" viewBox="0 0 380 309" fill="none" xmlns="http://www.w3.org/2000/svg">
<path d="M379.05 37.2834C365.133 43.45 350.183 47.6167 334.467 49.5C350.683 39.7966 362.816 24.5245 368.6 6.53336C353.364 15.5832 336.689 21.9533 319.3 25.3667C307.606 12.8811 292.118 4.60546 275.239 1.82459C258.36 -0.956281 241.035 1.91321 225.954 9.98757C210.873 18.0619 198.88 30.8894 191.836 46.4784C184.792 62.0674 183.092 79.5459 187 96.2C156.128 94.65 125.927 86.6258 98.3571 72.6484C70.787 58.671 46.464 39.0527 26.9667 15.0667C20.3 26.5667 16.4667 39.9 16.4667 54.1C16.4593 66.8833 19.6072 79.4707 25.6313 90.7456C31.6554 102.02 40.3694 111.634 51 118.733C38.6713 118.341 26.6146 115.01 15.8334 109.017V110.017C15.8321 127.946 22.0339 145.323 33.3864 159.2C44.7389 173.077 60.5429 182.599 78.1167 186.15C66.6798 189.245 54.689 189.701 43.05 187.483C48.0083 202.91 57.6666 216.4 70.6728 226.065C83.679 235.73 99.382 241.086 115.583 241.383C88.0806 262.974 54.1148 274.685 19.15 274.633C12.9564 274.635 6.76797 274.273 0.616699 273.55C36.108 296.37 77.4224 308.48 119.617 308.433C262.45 308.433 340.533 190.133 340.533 87.5334C340.533 84.2 340.45 80.8333 340.3 77.5C355.488 66.5163 368.599 52.9149 379.017 37.3334L379.05 37.2834V37.2834Z" fill="#FF5722"/>
</svg>
